# xmcd CD database file
#
# Track frame offsets:
#	150
#	28354
#	55504
#	81349
#	95246
#
# Disc length: 1477 seconds
#
# Revision: 0
# Processed by: cddbd v1.5.1PL0 Copyright (c) Steve Scherf et al.
# Submitted via: CDex 1.51
#
DISCID=3e05c305
DTITLE=REGENT SLIM - GO! SONGS
DYEAR=2004
DGENRE=Speech
TTITLE0=#1
TTITLE1=#2
TTITLE2=#3
TTITLE3=#4
TTITLE4=#5
EXTD=YEAR: 2004
EXTT0=
EXTT1=
EXTT2=
EXTT3=
EXTT4=
PLAYORDER=
